<mxfile host="app.diagrams.net" modified="2024-04-12T16:54:49.488Z" agent="Mozilla/5.0 (X11; Linux x86_64; rv:124.0) Gecko/20100101 Firefox/124.0" etag="9U35wcRlKoWz237RqBKg" version="24.2.3" type="github">
  <diagram name="Page-1" id="qOqSeO6un0RNDj4lg11x">
    <mxGraphModel dx="734" dy="738" grid="1" gridSize="10" guides="1" tooltips="1" connect="1" arrows="1" fold="1" page="1" pageScale="1" pageWidth="850" pageHeight="1100" math="0" shadow="0">
      <root>
        <mxCell id="0" />
        <mxCell id="1" parent="0" />
        <mxCell id="VwFLCYPLRj5lLe7OgInl-14" value="RomanNumberTransformer" style="swimlane;fontStyle=1;align=center;verticalAlign=top;childLayout=stackLayout;horizontal=1;startSize=26;horizontalStack=0;resizeParent=1;resizeParentMax=0;resizeLast=0;collapsible=1;marginBottom=0;whiteSpace=wrap;html=1;" vertex="1" parent="1">
          <mxGeometry x="120" y="340" width="200" height="120" as="geometry" />
        </mxCell>
        <mxCell id="VwFLCYPLRj5lLe7OgInl-15" value="&lt;div&gt;+ romanSymbols&lt;span style=&quot;white-space: pre;&quot;&gt;&#x9;&lt;span style=&quot;white-space: pre;&quot;&gt;&#x9;&lt;/span&gt;&lt;span style=&quot;white-space: pre;&quot;&gt;&#x9;&lt;/span&gt;&lt;/span&gt;: String[]&lt;/div&gt;&lt;div&gt;+ romanValue&lt;span style=&quot;white-space: pre;&quot;&gt;&#x9;&lt;/span&gt;&lt;span style=&quot;white-space: pre;&quot;&gt;&#x9;&lt;/span&gt;&lt;span style=&quot;white-space: pre;&quot;&gt;&#x9;&lt;/span&gt;&lt;span style=&quot;white-space: pre;&quot;&gt;&#x9;&lt;/span&gt;: String[]&lt;br&gt;&lt;/div&gt;" style="text;strokeColor=none;fillColor=none;align=left;verticalAlign=top;spacingLeft=4;spacingRight=4;overflow=hidden;rotatable=0;points=[[0,0.5],[1,0.5]];portConstraint=eastwest;whiteSpace=wrap;html=1;" vertex="1" parent="VwFLCYPLRj5lLe7OgInl-14">
          <mxGeometry y="26" width="200" height="34" as="geometry" />
        </mxCell>
        <mxCell id="VwFLCYPLRj5lLe7OgInl-16" value="" style="line;strokeWidth=1;fillColor=none;align=left;verticalAlign=middle;spacingTop=-1;spacingLeft=3;spacingRight=3;rotatable=0;labelPosition=right;points=[];portConstraint=eastwest;strokeColor=inherit;" vertex="1" parent="VwFLCYPLRj5lLe7OgInl-14">
          <mxGeometry y="60" width="200" height="8" as="geometry" />
        </mxCell>
        <mxCell id="VwFLCYPLRj5lLe7OgInl-17" value="&lt;div&gt;+ transformNumber(Integer)&lt;span style=&quot;white-space: pre;&quot;&gt;&#x9;&lt;/span&gt;: String&lt;/div&gt;&lt;div&gt;+ getTransformerType()&lt;span style=&quot;white-space: pre;&quot;&gt;&#x9;&lt;/span&gt;&lt;span style=&quot;white-space: pre;&quot;&gt;&#x9;&lt;/span&gt;: String&lt;br&gt;&lt;/div&gt;" style="text;strokeColor=none;fillColor=none;align=left;verticalAlign=top;spacingLeft=4;spacingRight=4;overflow=hidden;rotatable=0;points=[[0,0.5],[1,0.5]];portConstraint=eastwest;whiteSpace=wrap;html=1;" vertex="1" parent="VwFLCYPLRj5lLe7OgInl-14">
          <mxGeometry y="68" width="200" height="52" as="geometry" />
        </mxCell>
        <mxCell id="VwFLCYPLRj5lLe7OgInl-18" value="&lt;div&gt;&amp;lt;&amp;lt;interface&amp;gt;&amp;gt;&lt;br&gt;&lt;/div&gt;&lt;div&gt;NumberTransformer&lt;/div&gt;" style="swimlane;fontStyle=1;align=center;verticalAlign=top;childLayout=stackLayout;horizontal=1;startSize=40;horizontalStack=0;resizeParent=1;resizeParentMax=0;resizeLast=0;collapsible=1;marginBottom=0;whiteSpace=wrap;html=1;" vertex="1" parent="1">
          <mxGeometry x="260" y="140" width="200" height="100" as="geometry" />
        </mxCell>
        <mxCell id="VwFLCYPLRj5lLe7OgInl-20" value="" style="line;strokeWidth=1;fillColor=none;align=left;verticalAlign=middle;spacingTop=-1;spacingLeft=3;spacingRight=3;rotatable=0;labelPosition=right;points=[];portConstraint=eastwest;strokeColor=inherit;" vertex="1" parent="VwFLCYPLRj5lLe7OgInl-18">
          <mxGeometry y="40" width="200" height="8" as="geometry" />
        </mxCell>
        <mxCell id="VwFLCYPLRj5lLe7OgInl-21" value="&lt;div&gt;+ transformNumber(Integer)&lt;span style=&quot;white-space: pre;&quot;&gt;&#x9;&lt;/span&gt;: String&lt;/div&gt;&lt;div&gt;+ getTransformerType()&lt;span style=&quot;white-space: pre;&quot;&gt;&#x9;&lt;/span&gt;&lt;span style=&quot;white-space: pre;&quot;&gt;&#x9;&lt;/span&gt;: String&lt;br&gt;&lt;/div&gt;" style="text;strokeColor=none;fillColor=none;align=left;verticalAlign=top;spacingLeft=4;spacingRight=4;overflow=hidden;rotatable=0;points=[[0,0.5],[1,0.5]];portConstraint=eastwest;whiteSpace=wrap;html=1;" vertex="1" parent="VwFLCYPLRj5lLe7OgInl-18">
          <mxGeometry y="48" width="200" height="52" as="geometry" />
        </mxCell>
        <mxCell id="VwFLCYPLRj5lLe7OgInl-22" value="GermanNumberTransformer" style="swimlane;fontStyle=1;align=center;verticalAlign=top;childLayout=stackLayout;horizontal=1;startSize=26;horizontalStack=0;resizeParent=1;resizeParentMax=0;resizeLast=0;collapsible=1;marginBottom=0;whiteSpace=wrap;html=1;" vertex="1" parent="1">
          <mxGeometry x="400" y="340" width="200" height="120" as="geometry" />
        </mxCell>
        <mxCell id="VwFLCYPLRj5lLe7OgInl-23" value="&lt;div&gt;+ F&lt;span style=&quot;white-space: pre;&quot;&gt;&#x9;&lt;/span&gt;: java.text.DecimalFormat&lt;/div&gt;&lt;div&gt;+ S&lt;span style=&quot;white-space: pre;&quot;&gt;&#x9;&lt;/span&gt;: java.text.DecimalFormatSymbols&lt;br&gt;&lt;/div&gt;" style="text;strokeColor=none;fillColor=none;align=left;verticalAlign=top;spacingLeft=4;spacingRight=4;overflow=hidden;rotatable=0;points=[[0,0.5],[1,0.5]];portConstraint=eastwest;whiteSpace=wrap;html=1;" vertex="1" parent="VwFLCYPLRj5lLe7OgInl-22">
          <mxGeometry y="26" width="200" height="34" as="geometry" />
        </mxCell>
        <mxCell id="VwFLCYPLRj5lLe7OgInl-24" value="" style="line;strokeWidth=1;fillColor=none;align=left;verticalAlign=middle;spacingTop=-1;spacingLeft=3;spacingRight=3;rotatable=0;labelPosition=right;points=[];portConstraint=eastwest;strokeColor=inherit;" vertex="1" parent="VwFLCYPLRj5lLe7OgInl-22">
          <mxGeometry y="60" width="200" height="8" as="geometry" />
        </mxCell>
        <mxCell id="VwFLCYPLRj5lLe7OgInl-25" value="&lt;div&gt;+ transformNumber(Integer)&lt;span style=&quot;white-space: pre;&quot;&gt;&#x9;&lt;/span&gt;: String&lt;/div&gt;&lt;div&gt;+ getTransformerType()&lt;span style=&quot;white-space: pre;&quot;&gt;&#x9;&lt;/span&gt;&lt;span style=&quot;white-space: pre;&quot;&gt;&#x9;&lt;/span&gt;: String&lt;br&gt;&lt;/div&gt;" style="text;strokeColor=none;fillColor=none;align=left;verticalAlign=top;spacingLeft=4;spacingRight=4;overflow=hidden;rotatable=0;points=[[0,0.5],[1,0.5]];portConstraint=eastwest;whiteSpace=wrap;html=1;" vertex="1" parent="VwFLCYPLRj5lLe7OgInl-22">
          <mxGeometry y="68" width="200" height="52" as="geometry" />
        </mxCell>
        <mxCell id="VwFLCYPLRj5lLe7OgInl-28" value="Client" style="swimlane;fontStyle=1;align=center;verticalAlign=top;childLayout=stackLayout;horizontal=1;startSize=26;horizontalStack=0;resizeParent=1;resizeParentMax=0;resizeLast=0;collapsible=1;marginBottom=0;whiteSpace=wrap;html=1;" vertex="1" parent="1">
          <mxGeometry x="50" y="560" width="200" height="86" as="geometry" />
        </mxCell>
        <mxCell id="VwFLCYPLRj5lLe7OgInl-30" value="" style="line;strokeWidth=1;fillColor=none;align=left;verticalAlign=middle;spacingTop=-1;spacingLeft=3;spacingRight=3;rotatable=0;labelPosition=right;points=[];portConstraint=eastwest;strokeColor=inherit;" vertex="1" parent="VwFLCYPLRj5lLe7OgInl-28">
          <mxGeometry y="26" width="200" height="8" as="geometry" />
        </mxCell>
        <mxCell id="VwFLCYPLRj5lLe7OgInl-31" value="+ printTransformation(Integer): Void" style="text;strokeColor=none;fillColor=none;align=left;verticalAlign=top;spacingLeft=4;spacingRight=4;overflow=hidden;rotatable=0;points=[[0,0.5],[1,0.5]];portConstraint=eastwest;whiteSpace=wrap;html=1;" vertex="1" parent="VwFLCYPLRj5lLe7OgInl-28">
          <mxGeometry y="34" width="200" height="52" as="geometry" />
        </mxCell>
        <mxCell id="VwFLCYPLRj5lLe7OgInl-32" value="" style="endArrow=block;dashed=1;endFill=0;endSize=12;html=1;rounded=0;exitX=0.5;exitY=0;exitDx=0;exitDy=0;entryX=0.25;entryY=1;entryDx=0;entryDy=0;" edge="1" parent="1" source="VwFLCYPLRj5lLe7OgInl-14" target="VwFLCYPLRj5lLe7OgInl-18">
          <mxGeometry width="160" relative="1" as="geometry">
            <mxPoint x="300" y="510" as="sourcePoint" />
            <mxPoint x="460" y="510" as="targetPoint" />
          </mxGeometry>
        </mxCell>
        <mxCell id="VwFLCYPLRj5lLe7OgInl-33" value="" style="endArrow=block;dashed=1;endFill=0;endSize=12;html=1;rounded=0;exitX=0.5;exitY=0;exitDx=0;exitDy=0;entryX=0.755;entryY=1.077;entryDx=0;entryDy=0;entryPerimeter=0;" edge="1" parent="1" source="VwFLCYPLRj5lLe7OgInl-22" target="VwFLCYPLRj5lLe7OgInl-21">
          <mxGeometry width="160" relative="1" as="geometry">
            <mxPoint x="230" y="350" as="sourcePoint" />
            <mxPoint x="334" y="252" as="targetPoint" />
          </mxGeometry>
        </mxCell>
        <mxCell id="VwFLCYPLRj5lLe7OgInl-34" value="Extends" style="endArrow=block;endSize=16;endFill=0;html=1;rounded=0;entryX=0.52;entryY=1.038;entryDx=0;entryDy=0;exitX=0.5;exitY=0;exitDx=0;exitDy=0;entryPerimeter=0;" edge="1" parent="1" source="VwFLCYPLRj5lLe7OgInl-28" target="VwFLCYPLRj5lLe7OgInl-17">
          <mxGeometry width="160" relative="1" as="geometry">
            <mxPoint x="300" y="510" as="sourcePoint" />
            <mxPoint x="460" y="510" as="targetPoint" />
          </mxGeometry>
        </mxCell>
        <mxCell id="VwFLCYPLRj5lLe7OgInl-36" value="TestRomanNumberTransformer" style="swimlane;fontStyle=1;align=center;verticalAlign=top;childLayout=stackLayout;horizontal=1;startSize=26;horizontalStack=0;resizeParent=1;resizeParentMax=0;resizeLast=0;collapsible=1;marginBottom=0;whiteSpace=wrap;html=1;" vertex="1" parent="1">
          <mxGeometry x="360" y="560" width="200" height="120" as="geometry" />
        </mxCell>
        <mxCell id="VwFLCYPLRj5lLe7OgInl-37" value="&lt;div&gt;+ rnt: RomanNumberTransformer&lt;br&gt;&lt;/div&gt;" style="text;strokeColor=none;fillColor=none;align=left;verticalAlign=top;spacingLeft=4;spacingRight=4;overflow=hidden;rotatable=0;points=[[0,0.5],[1,0.5]];portConstraint=eastwest;whiteSpace=wrap;html=1;" vertex="1" parent="VwFLCYPLRj5lLe7OgInl-36">
          <mxGeometry y="26" width="200" height="34" as="geometry" />
        </mxCell>
        <mxCell id="VwFLCYPLRj5lLe7OgInl-38" value="" style="line;strokeWidth=1;fillColor=none;align=left;verticalAlign=middle;spacingTop=-1;spacingLeft=3;spacingRight=3;rotatable=0;labelPosition=right;points=[];portConstraint=eastwest;strokeColor=inherit;" vertex="1" parent="VwFLCYPLRj5lLe7OgInl-36">
          <mxGeometry y="60" width="200" height="8" as="geometry" />
        </mxCell>
        <mxCell id="VwFLCYPLRj5lLe7OgInl-39" value="&lt;div&gt;+ testPositive()&lt;span style=&quot;white-space: pre;&quot;&gt;&#x9;&lt;/span&gt;: Void&lt;/div&gt;&lt;div&gt;+ testNegative()&lt;span style=&quot;white-space: pre;&quot;&gt;&#x9;&lt;/span&gt;: Void&lt;br&gt;&lt;/div&gt;" style="text;strokeColor=none;fillColor=none;align=left;verticalAlign=top;spacingLeft=4;spacingRight=4;overflow=hidden;rotatable=0;points=[[0,0.5],[1,0.5]];portConstraint=eastwest;whiteSpace=wrap;html=1;" vertex="1" parent="VwFLCYPLRj5lLe7OgInl-36">
          <mxGeometry y="68" width="200" height="52" as="geometry" />
        </mxCell>
        <mxCell id="VwFLCYPLRj5lLe7OgInl-40" value="Use" style="endArrow=open;endSize=12;dashed=1;html=1;rounded=0;entryX=0.62;entryY=1.077;entryDx=0;entryDy=0;entryPerimeter=0;exitX=0.5;exitY=0;exitDx=0;exitDy=0;" edge="1" parent="1" source="VwFLCYPLRj5lLe7OgInl-36" target="VwFLCYPLRj5lLe7OgInl-17">
          <mxGeometry width="160" relative="1" as="geometry">
            <mxPoint x="300" y="480" as="sourcePoint" />
            <mxPoint x="460" y="480" as="targetPoint" />
          </mxGeometry>
        </mxCell>
      </root>
    </mxGraphModel>
  </diagram>
</mxfile>
